# xmcd
#
# Track frame offsets: 
#        150
#        15737
#        24780
#        45375
#        67067
#        88210
#        104935
#        114007
#        132152
#        150275
#        166625
#        187775
#        211400
#
# Disc length: 2964 seconds
#
# Revision: 0
# Processed by: cddbd v1.5.2PL0 Copyright (c) Steve Scherf et al.
# Submitted via: ExactAudioCopy v0.95b4
#
DISCID=990b920d
DTITLE=Wolfgang Bernreuther - Rudi Baier - Brothers and Friends
DYEAR=2007
DGENRE=Blues
TTITLE0=mucky pub
TTITLE1=midnight sun
TTITLE2=sadie
TTITLE3=bliss
TTITLE4=just another night
TTITLE5=where did you sleep last night
TTITLE6=kansas city
TTITLE7=lilianas cafe
TTITLE8=just a silly love song
TTITLE9=colours
TTITLE10=red house
TTITLE11=christo redemptor
TTITLE12=rocking through the country
EXTD=
EXTT0=
EXTT1=
EXTT2=
EXTT3=
EXTT4=
EXTT5=
EXTT6=
EXTT7=
EXTT8=
EXTT9=
EXTT10=
EXTT11=
EXTT12=
PLAYORDER=
